<svg width="200" height="200" viewBox="0 0 200 200" xmlns="http://www.w3.org/2000/svg">
  <defs>
    <linearGradient id="grad1" x1="0%" y1="0%" x2="100%" y2="100%">
      <stop offset="0%" style="stop-color:#2e8555;stop-opacity:1" />
      <stop offset="100%" style="stop-color:#25c2a0;stop-opacity:1" />
    </linearGradient>
  </defs>
  
  <!-- Background circle -->
  <circle cx="100" cy="100" r="95" fill="#f6f8fa" stroke="#e1e8ed" stroke-width="2"/>
  
  <!-- Mountain/server icon representing Fly.io compatibility -->
  <path d="M60 120 L80 80 L100 100 L120 70 L140 120 Z" fill="url(#grad1)"/>
  <path d="M70 140 L90 110 L110 125 L130 100 L150 140 Z" fill="#1976d2" opacity="0.8"/>
  
  <!-- Docker containers -->
  <rect x="40" y="150" width="20" height="15" fill="#2e8555" rx="2"/>
  <rect x="70" y="150" width="20" height="15" fill="#2e8555" rx="2"/>
  <rect x="100" y="150" width="20" height="15" fill="#2e8555" rx="2"/>
  <rect x="130" y="150" width="20" height="15" fill="#2e8555" rx="2"/>
  
  <!-- Connection lines -->
  <line x1="50" y1="150" x2="80" y2="120" stroke="#25c2a0" stroke-width="2"/>
  <line x1="80" y1="150" x2="100" y2="100" stroke="#25c2a0" stroke-width="2"/>
  <line x1="110" y1="150" x2="120" y2="70" stroke="#25c2a0" stroke-width="2"/>
  <line x1="140" y1="150" x2="140" y2="120" stroke="#25c2a0" stroke-width="2"/>
</svg>