<svg width="200" height="200" viewBox="0 0 200 200" xmlns="http://www.w3.org/2000/svg">
  <defs>
    <linearGradient id="grad2" x1="0%" y1="0%" x2="100%" y2="100%">
      <stop offset="0%" style="stop-color:#ff6b6b;stop-opacity:1" />
      <stop offset="100%" style="stop-color:#ff8e53;stop-opacity:1" />
    </linearGradient>
  </defs>
  
  <!-- Background circle -->
  <circle cx="100" cy="100" r="95" fill="#f6f8fa" stroke="#e1e8ed" stroke-width="2"/>
  
  <!-- Developer experience tree (represents workflow) -->
  <circle cx="100" cy="80" r="25" fill="url(#grad2)"/>
  <rect x="95" y="105" width="10" height="40" fill="#8b4513"/>
  
  <!-- Branches representing different DX features -->
  <circle cx="70" cy="60" r="12" fill="#ff8e53" opacity="0.8"/>
  <circle cx="130" cy="60" r="12" fill="#ff8e53" opacity="0.8"/>
  <circle cx="60" cy="100" r="10" fill="#ff8e53" opacity="0.6"/>
  <circle cx="140" cy="100" r="10" fill="#ff8e53" opacity="0.6"/>
  
  <!-- Connection lines -->
  <line x1="85" y1="70" x2="70" y2="60" stroke="#8b4513" stroke-width="3"/>
  <line x1="115" y1="70" x2="130" y2="60" stroke="#8b4513" stroke-width="3"/>
  <line x1="80" y1="90" x2="60" y2="100" stroke="#8b4513" stroke-width="2"/>
  <line x1="120" y1="90" x2="140" y2="100" stroke="#8b4513" stroke-width="2"/>
  
  <!-- Hot reload symbols -->
  <path d="M75 55 A8 8 0 1 1 85 65" fill="none" stroke="#25c2a0" stroke-width="2"/>
  <polygon points="85,62 88,65 85,68" fill="#25c2a0"/>
  
  <path d="M125 55 A8 8 0 1 0 115 65" fill="none" stroke="#25c2a0" stroke-width="2"/>
  <polygon points="115,62 112,65 115,68" fill="#25c2a0"/>
  
  <!-- CLI tools at the base -->
  <rect x="80" y="155" width="40" height="8" fill="#2e8555" rx="2"/>
  <text x="100" y="170" text-anchor="middle" font-family="monospace" font-size="8" fill="#1976d2">CLI</text>
</svg>